<svg width="668" height="652" viewBox="0 0 668 652" fill="none" xmlns="http://www.w3.org/2000/svg">
<path d="M567.333 458.003V243.939L452.893 116.802L452.879 116.785C411.698 71.0375 391.107 48.1623 366.853 39.717C345.553 32.298 322.367 32.2996 301.063 39.7216C276.812 48.1713 256.224 71.0505 215.048 116.808L215.038 116.819L100.667 243.918V458.003C100.667 514.007 100.667 542.01 111.566 563.4C121.153 582.217 136.451 597.517 155.268 607.103C176.659 618.003 204.661 618.003 260.666 618.003H260.667H407.333H407.334C463.34 618.003 491.34 618.003 512.733 607.103C531.55 597.517 546.847 582.217 556.433 563.4C567.333 542.01 567.333 514.007 567.333 458.004V458.003Z" fill="#0A7CFF" fill-opacity="0.24"/>
<path d="M567.333 243.939V458.003C567.333 514.007 567.333 542.01 556.433 563.4C546.847 582.217 531.55 597.517 512.733 607.103C491.34 618.003 463.34 618.003 407.333 618.003H260.667C204.661 618.003 176.659 618.003 155.268 607.103C136.451 597.517 121.153 582.217 111.566 563.4C100.667 542.01 100.667 514.007 100.667 458.003V243.918M634 318.003L452.893 116.802C411.703 71.043 391.11 48.1633 366.853 39.717C345.553 32.298 322.367 32.2996 301.063 39.7216C276.81 48.172 256.22 71.0543 215.038 116.819L34 318.003" stroke="#0A7CFF" stroke-width="66.6667" stroke-linecap="round" stroke-linejoin="round"/>
</svg>
