<svg width="668" height="666" viewBox="0 0 668 666" fill="none" xmlns="http://www.w3.org/2000/svg">
<path d="M34 418.67V336.34C34 298.05 34 278.903 38.935 261.273C43.3067 245.655 50.491 230.966 60.135 217.927C71.0223 203.207 86.1347 191.453 116.359 167.945L203.026 100.537C249.869 64.1037 273.29 45.8867 299.153 38.8844C321.973 32.7054 346.027 32.7054 368.847 38.8844C394.71 45.8867 418.13 64.1037 464.973 100.537L551.64 167.945C581.867 191.453 596.977 203.207 607.863 217.927C617.51 230.966 624.693 245.655 629.063 261.273C634 278.903 634 298.05 634 336.34V418.67C634 493.343 634 530.68 619.467 559.2C606.683 584.29 586.287 604.687 561.2 617.47C532.677 632.003 495.34 632.003 420.667 632.003H247.333C172.66 632.003 135.323 632.003 106.801 617.47C81.713 604.687 61.3157 584.29 48.5324 559.2C34 530.68 34 493.343 34 418.67Z" fill="#0A7CFF" fill-opacity="0.24" stroke="#0A7CFF" stroke-width="66.6667" stroke-linecap="round" stroke-linejoin="round"/>
</svg>
