<svg width="534" height="668" viewBox="0 0 534 668" fill="none" xmlns="http://www.w3.org/2000/svg">
<path d="M367 467.333V534C367 565.063 367 580.593 361.927 592.847C355.16 609.18 342.18 622.16 325.847 628.927C313.593 634 298.063 634 267 634C235.937 634 220.407 634 208.153 628.927C191.819 622.16 178.841 609.18 172.075 592.847C167 580.593 167 565.063 167 534V467.333M33.6667 267.333C33.6667 138.467 138.134 34 267 34C395.867 34 500.333 138.467 500.333 267.333C500.333 352.21 455.013 426.503 387.253 467.333H146.747C78.986 426.503 33.6667 352.21 33.6667 267.333Z" fill="#0A7CFF" fill-opacity="0.24"/>
<path d="M367 467.333V534C367 565.063 367 580.593 361.927 592.847C355.16 609.18 342.18 622.16 325.847 628.927C313.593 634 298.063 634 267 634C235.937 634 220.407 634 208.153 628.927C191.819 622.16 178.841 609.18 172.075 592.847C167 580.593 167 565.063 167 534V467.333M33.6667 267.333C33.6667 138.467 138.134 34 267 34C395.867 34 500.333 138.467 500.333 267.333C500.333 352.21 455.013 426.503 387.253 467.333H146.747C78.986 426.503 33.6667 352.21 33.6667 267.333Z" stroke="#0A7CFF" stroke-width="66.6667" stroke-linecap="round" stroke-linejoin="round"/>
</svg>
