<svg width="668" height="534" viewBox="0 0 668 534" fill="none" xmlns="http://www.w3.org/2000/svg">
<path d="M34 300.333H161.909C170.062 300.333 174.138 300.333 177.974 301.253C181.376 302.07 184.627 303.417 187.609 305.247C190.973 307.307 193.856 310.19 199.621 315.953L219.425 335.757C230.955 347.287 236.72 353.053 243.448 357.177C249.412 360.83 255.915 363.523 262.718 365.157C270.39 367 278.543 367 294.85 367H373.15C389.457 367 397.61 367 405.283 365.157C412.083 363.523 418.587 360.83 424.553 357.177C431.28 353.053 437.047 347.287 448.577 335.757L468.38 315.953C474.143 310.19 477.027 307.307 480.39 305.247C483.373 303.417 486.623 302.07 490.027 301.253C493.863 300.333 497.94 300.333 506.09 300.333H634M140.667 500.333H527.333C564.67 500.333 583.34 500.333 597.6 493.067C610.143 486.677 620.343 476.477 626.733 463.933C634 449.673 634 431.003 634 393.667V140.333C634 102.996 634 84.328 626.733 70.0674C620.343 57.523 610.143 47.3244 597.6 40.933C583.34 33.6667 564.67 33.6667 527.333 33.6667H140.667C103.33 33.6667 84.6613 33.6667 70.4007 40.933C57.8563 47.3244 47.6577 57.523 41.2663 70.0674C34 84.328 34 102.996 34 140.333V393.667C34 431.003 34 449.673 41.2663 463.933C47.6577 476.477 57.8563 486.677 70.4007 493.067C84.6613 500.333 103.33 500.333 140.667 500.333Z" fill="#0A7CFF" fill-opacity="0.24"/>
<path d="M34 300.333H161.909C170.062 300.333 174.138 300.333 177.974 301.253C181.376 302.07 184.627 303.417 187.609 305.247C190.973 307.307 193.856 310.19 199.621 315.953L219.425 335.757C230.955 347.287 236.72 353.053 243.448 357.177C249.412 360.83 255.915 363.523 262.718 365.157C270.39 367 278.543 367 294.85 367H373.15C389.457 367 397.61 367 405.283 365.157C412.083 363.523 418.587 360.83 424.553 357.177C431.28 353.053 437.047 347.287 448.577 335.757L468.38 315.953C474.143 310.19 477.027 307.307 480.39 305.247C483.373 303.417 486.623 302.07 490.027 301.253C493.863 300.333 497.94 300.333 506.09 300.333H634M140.667 500.333H527.333C564.67 500.333 583.34 500.333 597.6 493.067C610.143 486.677 620.343 476.477 626.733 463.933C634 449.673 634 431.003 634 393.667V140.333C634 102.996 634 84.328 626.733 70.0674C620.343 57.523 610.143 47.3244 597.6 40.933C583.34 33.6667 564.67 33.6667 527.333 33.6667H140.667C103.33 33.6667 84.6613 33.6667 70.4007 40.933C57.8563 47.3244 47.6577 57.523 41.2663 70.0674C34 84.328 34 102.996 34 140.333V393.667C34 431.003 34 449.673 41.2663 463.933C47.6577 476.477 57.8563 486.677 70.4007 493.067C84.6613 500.333 103.33 500.333 140.667 500.333Z" stroke="#0A7CFF" stroke-width="66.6667" stroke-linecap="round" stroke-linejoin="round"/>
</svg>
