<svg width="15" height="13" viewBox="0 0 15 13" fill="none" xmlns="http://www.w3.org/2000/svg">
<path d="M7.14899 12.8006L0.339645 2.91064C0.161264 2.65143 0.0476132 2.33605 0.012012 2.00147C-0.0235893 1.66689 0.0203325 1.32696 0.138631 1.0215C0.256929 0.716049 0.444705 0.457729 0.679953 0.276812C0.915201 0.0958946 1.18818 -0.000126431 1.4669 1.24938e-07H13.5349C13.8135 0.000295 14.0862 0.0966219 14.3212 0.277705C14.5562 0.458788 14.7437 0.717134 14.8618 1.02251C14.9798 1.32788 15.0236 1.66764 14.9879 2.00202C14.9523 2.3364 14.8386 2.65157 14.6604 2.91064L7.85284 12.8006C7.80984 12.863 7.75602 12.9132 7.69521 12.9477C7.63439 12.9821 7.56715 13 7.5 13C7.43285 13 7.36744 12.9821 7.30663 12.9477C7.24581 12.9132 7.192 12.863 7.14899 12.8006Z" fill="#0A7CFF" fill-opacity="0.8"/>
</svg>
