<svg width="32" height="32" viewBox="0 0 32 32" fill="none" xmlns="http://www.w3.org/2000/svg">
<path d="M31 16C31 24.2843 24.2843 31 16 31C7.71573 31 1 24.2843 1 16C1 7.71573 7.71573 1 16 1C24.2843 1 31 7.71573 31 16Z" fill="#0A7CFF" fill-opacity="0.24" stroke="#0A7CFF" stroke-width="2"/>
<path d="M20.8739 17.6929L21.4769 13.9308H17.7044V11.4906C17.7044 10.4611 18.2305 9.45705 19.9202 9.45705H21.6364V6.25419C21.6364 6.25419 20.0795 6 18.5918 6C15.4834 6 13.4538 7.8022 13.4538 11.0635V13.9308H10V17.6929H13.4538V26.7879C14.1471 26.8921 14.8564 26.9455 15.5791 26.9455C16.3017 26.9455 17.0111 26.8921 17.7044 26.7879V17.6929H20.8739Z" fill="#0A7CFF"/>
</svg>
