<svg width="34" height="34" viewBox="0 0 34 34" fill="none" xmlns="http://www.w3.org/2000/svg">
<path d="M24.5699 33V26.6C24.804 24.5957 24.1997 22.5842 22.8877 21C27.9343 21 32.9809 17.8 32.9809 12.2C33.1155 10.2 32.5268 8.232 31.2987 6.6C31.7698 4.76 31.7698 2.84 31.2987 1C31.2987 1 29.6165 1 26.2521 3.4C21.8111 2.6 17.2356 2.6 12.7945 3.4C9.43015 1 7.74795 1 7.74795 1C7.24329 2.84 7.24329 4.76 7.74795 6.6C6.5231 8.22541 5.92861 10.2045 6.06575 12.2C6.06575 17.8 11.1124 21 16.1589 21C15.5029 21.784 15.0151 22.68 14.7291 23.64C14.4431 24.6 14.359 25.608 14.4767 26.6V33" fill="#087EA4" fill-opacity="0.24"/>
<path d="M24.5699 33V26.6C24.804 24.5957 24.1997 22.5842 22.8877 21C27.9343 21 32.9809 17.8 32.9809 12.2C33.1155 10.2 32.5267 8.232 31.2987 6.6C31.7698 4.76 31.7698 2.84 31.2987 1C31.2987 1 29.6165 1 26.2521 3.4C21.8111 2.6 17.2356 2.6 12.7945 3.4C9.43015 1 7.74795 1 7.74795 1C7.24329 2.84 7.24329 4.76 7.74795 6.6C6.5231 8.22541 5.92861 10.2045 6.06575 12.2C6.06575 17.8 11.1124 21 16.1589 21C15.5029 21.784 15.0151 22.68 14.7291 23.64C14.4431 24.6 14.359 25.608 14.4767 26.6V33" stroke="#0A7CFF" stroke-width="2" stroke-linecap="round" stroke-linejoin="round"/>
<path d="M12.7754 28.2C5.18868 31.4 4.3644 25 1 25" stroke="#0A7CFF" stroke-width="2" stroke-linecap="round" stroke-linejoin="round"/>
</svg>
