<svg width="32" height="32" viewBox="0 0 32 32" fill="none" xmlns="http://www.w3.org/2000/svg">
<path fill-rule="evenodd" clip-rule="evenodd" d="M22.4286 1H9.57144C4.83756 1 1 4.83756 1 9.57144V22.4286C1 27.1624 4.83756 31 9.57144 31H22.4286C27.1624 31 31 27.1624 31 22.4286V9.57144C31 4.83756 27.1624 1 22.4286 1Z" fill="#0A7CFF" fill-opacity="0.24" stroke="#0A7CFF" stroke-width="2" stroke-linecap="round" stroke-linejoin="round"/>
<path fill-rule="evenodd" clip-rule="evenodd" d="M15.9994 22.4289C12.4489 22.4289 9.5708 19.5509 9.5708 16.0004C9.5708 12.4499 12.4489 9.57178 15.9994 9.57178C19.5499 9.57178 22.428 12.4499 22.428 16.0004C22.428 17.7052 21.7506 19.3404 20.545 20.546C19.3395 21.7516 17.7042 22.4289 15.9994 22.4289Z" fill="#0A7CFF" fill-opacity="0.24" stroke="#0A7CFF" stroke-width="2" stroke-linecap="round" stroke-linejoin="round"/>
<path d="M24.7492 6.53585C24.1574 6.53585 23.6777 7.01555 23.6777 7.60728C23.6777 8.19902 24.1574 8.67871 24.7492 8.67871C25.3409 8.67871 25.8206 8.19902 25.8206 7.60728C25.8206 7.01555 25.3409 6.53585 24.7492 6.53585Z" fill="#0A7CFF" fill-opacity="0.24" stroke="#0A7CFF" stroke-width="2.4" stroke-linecap="round"/>
</svg>
