<svg width="32" height="32" viewBox="0 0 32 32" fill="none" xmlns="http://www.w3.org/2000/svg">
<path d="M9 1H23C27.4477 1 31 4.55228 31 9V23C31 27.4477 27.4477 31 23 31H9C4.55228 31 1 27.4477 1 23V9C1 4.55228 4.55228 1 9 1Z" fill="#0A7CFF" fill-opacity="0.24" stroke="#0A7CFF" stroke-width="2"/>
<path d="M10.8777 12.1748H7.45312V23.135H10.8777V12.1748Z" fill="#0A7CFF"/>
<path d="M9.09321 7C7.83042 7 7 7.81669 7 8.90104C7 9.96481 7.80297 10.8021 9.04517 10.8021H9.07262C10.3629 10.8021 11.1658 9.95794 11.159 8.90104C11.1315 7.81669 10.356 7 9.09321 7Z" fill="#0A7CFF"/>
<path d="M20.2308 12.0718C18.268 12.0718 17.0395 13.1424 16.813 13.8973V12.1747H12.9629C13.0109 13.0875 12.9629 23.1349 12.9629 23.1349H16.813V17.2121C16.813 16.8759 16.7993 16.5464 16.8954 16.3131C17.1562 15.6543 17.7258 14.968 18.7484 14.968C20.0867 14.968 20.6906 15.9837 20.6906 17.4661V23.1349H24.575V17.0406C24.575 13.6503 22.6671 12.0718 20.2308 12.0718Z" fill="#0A7CFF"/>
</svg>
