<svg version="1.2" xmlns="http://www.w3.org/2000/svg" viewBox="0 0 256 290" width="256" height="290"><style>.a{fill:#264de4}.b{fill:#2965f1}.c{fill:#ebebeb}.d{fill:#fff}</style><path class="a" d="m127.8 289.1l-104.1-28.9-23.3-260.4h255.2l-23.3 260.3z"/><path class="b" d="m212.4 243.5l19.9-222.4h-104.3v245.9z"/><path class="c" d="m53.7 117.6l2.8 32h71.5v-32z"/><path class="c" d="m47.9 53l2.9 31.9h77.2v-31.9z"/><path class="c" d="m128 200.6h-0.1l-35.6-9.6-2.3-25.5h-32l4.4 50.2 65.5 18.1h0.1z"/><path  d="m60.5-71h38.7v16.2h-22.5v16.2h22.5v16.1h-38.7z"/><path  d="m106.9-71h38.7v14.1h-22.5v2.8h22.5v32.3h-38.7v-14.7h22.5v-2.9h-22.5z"/><path  d="m153.3-71h38.7v14.1h-22.5v2.8h22.5v32.3h-38.7v-14.7h22.5v-2.9h-22.5z"/><path class="d" d="m202.1 117.6l5.8-64.6h-80v31.9h45l-2.9 32.7h-42.1v32h39.3l-3.7 41.4-35.6 9.6v33.2l65.5-18.1 0.4-5.4 7.5-84.1z"/></svg>