<svg width="44" height="65" viewBox="0 0 44 65" fill="none" xmlns="http://www.w3.org/2000/svg">
<g clip-path="url(#clip0_819_1113)">
<path d="M22.0259 32.5C22.0259 29.6711 23.1497 26.958 25.1501 24.9576C27.1505 22.9572 29.8636 21.8334 32.6925 21.8334C35.5215 21.8334 38.2346 22.9572 40.235 24.9576C42.2354 26.958 43.3592 29.6711 43.3592 32.5C43.3592 35.329 42.2354 38.0421 40.235 40.0425C38.2346 42.0429 35.5215 43.1667 32.6925 43.1667C29.8636 43.1667 27.1505 42.0429 25.1501 40.0425C23.1497 38.0421 22.0259 35.329 22.0259 32.5Z" fill="#1ABCFE"/>
<path d="M0.692383 53.8333C0.692383 51.0043 1.81619 48.2912 3.81658 46.2908C5.81697 44.2904 8.53007 43.1666 11.359 43.1666H22.0257V53.8333C22.0257 56.6623 20.9019 59.3754 18.9015 61.3758C16.9011 63.3762 14.188 64.5 11.359 64.5C8.53007 64.5 5.81697 63.3762 3.81658 61.3758C1.81619 59.3754 0.692383 56.6623 0.692383 53.8333Z" fill="#0ACF83"/>
<path d="M22.0259 0.5V21.8333H32.6925C35.5215 21.8333 38.2346 20.7095 40.235 18.7091C42.2354 16.7087 43.3592 13.9956 43.3592 11.1667C43.3592 8.33769 42.2354 5.62458 40.235 3.62419C38.2346 1.62381 35.5215 0.5 32.6925 0.5L22.0259 0.5Z" fill="#FF7262"/>
<path d="M0.692383 11.1667C0.692383 13.9956 1.81619 16.7087 3.81658 18.7091C5.81697 20.7095 8.53007 21.8333 11.359 21.8333H22.0257V0.5H11.359C8.53007 0.5 5.81697 1.62381 3.81658 3.62419C1.81619 5.62458 0.692383 8.33769 0.692383 11.1667Z" fill="#F24E1E"/>
<path d="M0.692383 32.5C0.692383 35.329 1.81619 38.0421 3.81658 40.0425C5.81697 42.0429 8.53007 43.1667 11.359 43.1667H22.0257V21.8334H11.359C8.53007 21.8334 5.81697 22.9572 3.81658 24.9576C1.81619 26.958 0.692383 29.6711 0.692383 32.5Z" fill="#A259FF"/>
</g>
<defs>
<clipPath id="clip0_819_1113">
<rect width="42.6667" height="64" fill="white" transform="translate(0.692383 0.5)"/>
</clipPath>
</defs>
</svg>
