<svg version="1.2" xmlns="http://www.w3.org/2000/svg" viewBox="0 0 256 291" width="256" height="291"><style>.a{fill:#e44d26}.b{fill:#f16529}.c{fill:#ebebeb}.d{fill:#fff}</style><path class="a" d="m255.6 0.8l-23.3 260.3-104.5 29-104.1-28.9-23.3-260.4z"/><path class="b" d="m128 268l84.4-23.5 19.9-222.4h-104.3z"/><path class="c" d="m82.8 85.9h45.2v-31.9h-80.1l0.8 8.6 7.8 88h71.5v-32h-42.3z"/><path class="c" d="m90 166.5h-32l4.4 50.2 65.5 18.1h0.1v-33.2h-0.1l-35.6-9.6z"/><path  d="m24.2-70h16.2v16h14.9v-16h16.2v48.6h-16.2v-16.3h-14.9v16.3h-16.2v-48.6z"/><path  d="m92.8-53.9h-14.3v-16.1h44.9v16.1h-14.3v32.5h-16.3v-32.5z"/><path  d="m130.5-70h16.9l10.4 17.1 10.4-17.1h16.9v48.6h-16.1v-24.1l-11.2 17.3h-0.3l-11.2-17.3v24.1h-15.8z"/><path  d="m193.2-70h16.2v32.5h22.9v16.1h-39.1z"/><path class="d" d="m127.9 150.6h39.3l-3.7 41.4-35.6 9.6v33.2l65.5-18.1 0.4-5.4 7.5-84.1 0.8-8.6h-74.2z"/><path class="d" d="m127.9 85.9h77.1l0.7-7.1 1.4-16.2 0.8-8.6h-80z"/></svg>