<svg width="64" height="65" viewBox="0 0 64 65" fill="none" xmlns="http://www.w3.org/2000/svg">
<path d="M0 64.5V0.5H64V64.5H0Z" fill="#FFD600"/>
<path d="M41.8451 48.4058C43.0754 50.404 44.4122 52.3187 47.2442 52.3187C49.6229 52.3187 50.8709 51.1365 50.8709 49.5009C50.8709 47.5436 49.5802 46.8485 46.9634 45.7089L45.5287 45.0973C41.3882 43.3409 38.6345 41.14 38.6345 36.4911C38.6345 32.2067 41.9145 28.9462 47.0398 28.9462C50.6896 28.9462 53.3118 30.2102 55.2033 33.5205L50.734 36.3773C49.7509 34.6209 48.6878 33.9293 47.0398 33.9293C45.358 33.9293 44.2931 34.9907 44.2931 36.3773C44.2931 38.0911 45.3598 38.7845 47.822 39.8458L49.2567 40.4573C54.1367 42.5356 56.8887 44.6582 56.8887 49.4298C56.8887 54.5711 52.8282 57.3889 47.3776 57.3889C42.046 57.3889 39.0185 54.7133 37.3331 51.4013L41.8451 48.4058ZM21.2478 48.5516C22.1474 50.1622 23.5145 51.4013 25.4807 51.4013C27.3616 51.4013 28.4442 50.6582 28.4442 47.7693V28.9445H34.3696V48.6796C34.3696 54.6654 30.8976 57.3889 25.8274 57.3889C21.246 57.3889 17.9394 54.2849 16.5918 51.4013L21.2478 48.5516Z" fill="#000001"/>
</svg>
