<svg width="65" height="39" viewBox="0 0 65 39" fill="none" xmlns="http://www.w3.org/2000/svg">
<path d="M64.1875 37.09C61.8595 37.682 60.4195 37.116 59.1275 35.176L49.9395 22.464L48.6115 20.704L37.8815 35.218C36.6555 36.964 35.3695 37.724 33.0815 37.106L46.8215 18.662L34.0295 2.00202C36.2295 1.57402 37.7495 1.79202 39.0995 3.76202L48.6295 16.632L58.2295 3.83202C59.4595 2.08602 60.7815 1.42202 62.9895 2.06602L58.0295 8.64202L51.3095 17.392C50.5095 18.392 50.6195 19.076 51.3555 20.042L64.1875 37.09ZM0.2035 18.354L1.3275 12.826C4.3875 1.88602 16.9275 -2.65998 25.5755 4.10002C30.6295 8.07602 31.8855 13.7 31.6355 20H3.1475C2.7195 31.34 10.8815 38.184 21.2875 34.692C24.9375 33.466 27.0875 30.608 28.1635 27.032C28.7095 25.24 29.6135 24.96 31.2975 25.472C30.4375 29.944 28.4975 33.68 24.3975 36.018C18.2715 39.518 9.5275 38.386 4.9275 33.522C2.1875 30.7 1.0555 27.124 0.5475 23.3C0.4675 22.668 0.3075 22.066 0.1875 21.46C0.198167 20.4254 0.2035 19.3907 0.2035 18.356V18.354ZM3.1995 17.594H28.9435C28.7755 9.39402 23.6695 3.57002 16.6915 3.52002C9.0315 3.46002 3.5315 9.14602 3.1995 17.594Z" fill="#F9FAFB"/>
</svg>
