<svg width="57" height="65" viewBox="0 0 57 65" fill="none" xmlns="http://www.w3.org/2000/svg">
<g clip-path="url(#clip0_819_1076)">
<path d="M28.9132 64.5C28.0552 64.5 27.2545 64.2668 26.5109 63.8586L18.9036 59.2517C17.7596 58.6102 18.3316 58.377 18.6748 58.2603C20.2191 57.7355 20.5051 57.6189 22.1067 56.6859C22.2782 56.5692 22.507 56.6275 22.6786 56.7442L28.5128 60.3014C28.7416 60.418 29.0276 60.418 29.1992 60.3014L52.0211 46.8307C52.2499 46.714 52.3643 46.4808 52.3643 46.1892V19.306C52.3643 19.0145 52.2499 18.7812 52.0211 18.6646L29.1992 5.25223C28.9704 5.13561 28.6844 5.13561 28.5128 5.25223L5.69085 18.6646C5.46207 18.7812 5.34766 19.0728 5.34766 19.306V46.1892C5.34766 46.4224 5.46207 46.714 5.69085 46.8307L11.9254 50.5045C15.3001 52.2539 17.4164 50.2129 17.4164 48.1719V21.6386C17.4164 21.2888 17.7024 20.9389 18.1028 20.9389H21.0199C21.3631 20.9389 21.7062 21.2305 21.7062 21.6386V48.1719C21.7062 52.7788 19.2467 55.4613 14.9569 55.4613C13.6414 55.4613 12.6118 55.4613 9.69468 54.0034L3.68893 50.5045C2.20179 49.6297 1.28662 47.9969 1.28662 46.2475V19.3644C1.28662 17.615 2.20179 15.9822 3.68893 15.1074L26.5109 1.63672C27.9409 0.820313 29.8856 0.820313 31.3155 1.63672L54.1374 15.1074C55.6246 15.9822 56.5398 17.615 56.5398 19.3644V46.2475C56.5398 47.9969 55.6246 49.6297 54.1374 50.5045L31.3155 63.9752C30.6291 64.2668 29.7712 64.5 28.9132 64.5Z" fill="#5FA04E"/>
<path d="M36.0058 46.0142C25.9961 46.0142 23.937 41.349 23.937 37.3836C23.937 37.0337 24.223 36.6839 24.6233 36.6839H27.5977C27.9408 36.6839 28.2269 36.9171 28.2269 37.267C28.6844 40.3576 30 41.8738 36.0629 41.8738C40.8675 41.8738 42.9267 40.7658 42.9267 38.1417C42.9267 36.6255 42.3547 35.5175 34.8617 34.7594C28.6272 34.1179 24.7378 32.7184 24.7378 27.645C24.7378 22.9215 28.6272 20.1224 35.1478 20.1224C42.4691 20.1224 46.0725 22.6883 46.5301 28.2865C46.5301 28.4615 46.4729 28.6364 46.3586 28.8114C46.2442 28.9279 46.0725 29.0446 45.9009 29.0446H42.8695C42.5835 29.0446 42.2975 28.8114 42.2403 28.5197C41.5539 25.3124 39.7808 24.2627 35.0906 24.2627C29.8283 24.2627 29.1992 26.1289 29.1992 27.5284C29.1992 29.2195 29.9428 29.7444 37.0353 30.6774C44.0706 31.6104 47.3881 32.9517 47.3881 37.9668C47.3881 43.0984 43.2127 46.0142 36.0058 46.0142Z" fill="#5FA04E"/>
</g>
<defs>
<clipPath id="clip0_819_1076">
<rect width="56.32" height="64" fill="white" transform="translate(0.653809 0.5)"/>
</clipPath>
</defs>
</svg>
