<svg width="71" height="65" viewBox="0 0 71 65" fill="none" xmlns="http://www.w3.org/2000/svg">
<g clip-path="url(#clip0_819_1058)">
<path d="M35.6572 39.2725C39.3295 39.2725 42.3065 36.2404 42.3065 32.5C42.3065 28.7597 39.3295 25.7275 35.6572 25.7275C31.9848 25.7275 29.0078 28.7597 29.0078 32.5C29.0078 36.2404 31.9848 39.2725 35.6572 39.2725Z" fill="#087EA4"/>
<path d="M35.6569 47.738C54.0186 47.738 68.9037 40.9157 68.9037 32.4999C68.9037 24.0842 54.0186 17.2618 35.6569 17.2618C17.2952 17.2618 2.41016 24.0842 2.41016 32.4999C2.41016 40.9157 17.2952 47.738 35.6569 47.738Z" stroke="#087EA4" stroke-width="3"/>
<path d="M22.7003 40.119C31.8812 56.3152 45.1246 66.0336 52.2803 61.8257C59.4361 57.6178 57.7944 41.0771 48.6136 24.8809C39.4328 8.68475 26.1893 -1.03366 19.0336 3.17422C11.8778 7.38211 13.5195 23.9228 22.7003 40.119Z" stroke="#087EA4" stroke-width="3"/>
<path d="M22.7002 24.8808C13.5193 41.077 11.8777 57.6177 19.0334 61.8256C26.1892 66.0335 39.4326 56.3151 48.6134 40.1189C57.7943 23.9228 59.4359 7.38205 52.2802 3.17416C45.1244 -1.03372 31.881 8.68469 22.7002 24.8808Z" stroke="#087EA4" stroke-width="3"/>
</g>
<defs>
<clipPath id="clip0_819_1058">
<rect width="69.8182" height="64" fill="white" transform="translate(0.748047 0.5)"/>
</clipPath>
</defs>
</svg>
