<svg width="73" height="73" viewBox="0 0 73 73" fill="none" xmlns="http://www.w3.org/2000/svg">
<path d="M70.8603 36.5512C70.8603 55.5508 55.4543 70.9537 36.4492 70.9537C17.4441 70.9537 2.03809 55.5508 2.03809 36.5512C2.03809 17.5516 17.4441 2.1488 36.4492 2.1488C55.4543 2.1488 70.8603 17.5516 70.8603 36.5512Z" fill="#0A7CFF" fill-opacity="0.24" stroke="#0A7CFF" stroke-width="3"/>
<path d="M45.8394 39.9417L47.193 31.4999H38.7258V26.0243C38.7258 23.7142 39.9065 21.4613 43.6989 21.4613H47.5508V14.2744C47.5508 14.2744 44.0565 13.704 40.7174 13.704C33.7409 13.704 29.1854 17.748 29.1854 25.0659V31.4999H21.4336V39.9417H29.1854V60.35C30.7415 60.5839 32.3336 60.7035 33.9555 60.7035C35.5773 60.7035 37.1696 60.5839 38.7258 60.35V39.9417H45.8394Z" fill="#0A7CFF"/>
</svg>
