<svg width="75" height="75" viewBox="0 0 75 75" fill="none" xmlns="http://www.w3.org/2000/svg">
<path fill-rule="evenodd" clip-rule="evenodd" d="M52.8397 1.54633H22.0587C10.7255 1.54633 1.53809 10.7315 1.53809 22.062V52.8356C1.53809 64.1659 10.7255 73.3513 22.0587 73.3513H52.8397C64.1728 73.3513 73.3604 64.1659 73.3604 52.8356V22.062C73.3604 10.7315 64.1728 1.54633 52.8397 1.54633Z" fill="#0A7CFF" fill-opacity="0.24" stroke="#0A7CFF" stroke-width="3" stroke-linecap="round" stroke-linejoin="round"/>
<path fill-rule="evenodd" clip-rule="evenodd" d="M37.451 52.8358C28.9509 52.8358 22.0605 45.9472 22.0605 37.449C22.0605 28.9509 28.9509 22.0623 37.451 22.0623C45.9512 22.0623 52.8415 28.9509 52.8415 37.449C52.8415 41.5296 51.2199 45.4435 48.3337 48.329C45.4474 51.2146 41.5326 52.8358 37.451 52.8358Z" fill="#0A7CFF" fill-opacity="0.24" stroke="#0A7CFF" stroke-width="4" stroke-linecap="round" stroke-linejoin="round"/>
<path d="M58.3981 14.7964C56.9814 14.7964 55.833 15.9445 55.833 17.3608C55.833 18.7771 56.9814 19.9253 58.3981 19.9253C59.8147 19.9253 60.9632 18.7771 60.9632 17.3608C60.9632 15.9445 59.8147 14.7964 58.3981 14.7964Z" fill="#0A7CFF" fill-opacity="0.24" stroke="#0A7CFF" stroke-width="3" stroke-linecap="round"/>
</svg>
