<svg width="73" height="73" viewBox="0 0 73 73" fill="none" xmlns="http://www.w3.org/2000/svg">
<path d="M20.7381 2.04633H52.1603C62.5544 2.04633 70.8603 10.3507 70.8603 20.7414V52.1561C70.8603 62.5468 62.5544 70.8512 52.1603 70.8512H20.7381C10.3439 70.8512 2.03809 62.5468 2.03809 52.1561V20.7414C2.03809 10.3507 10.3439 2.04633 20.7381 2.04633Z" fill="#0A7CFF" fill-opacity="0.24" stroke="#0A7CFF" stroke-width="3"/>
<path d="M24.9559 27.8652H17.2695V52.4587H24.9559V27.8652Z" fill="#0A7CFF"/>
<path d="M20.9471 16.2537C18.1129 16.2537 16.249 18.0862 16.249 20.5194C16.249 22.9064 18.0512 24.7852 20.8393 24.7852H20.9009C23.7968 24.7852 25.599 22.891 25.5836 20.5194C25.522 18.0862 23.7814 16.2537 20.9471 16.2537Z" fill="#0A7CFF"/>
<path d="M45.9452 27.6342C41.5398 27.6342 38.7825 30.0366 38.2742 31.7306V27.8652H29.6328C29.7406 29.9134 29.6328 52.4588 29.6328 52.4588H38.2742V39.1687C38.2742 38.4141 38.2434 37.6749 38.4591 37.1513C39.0444 35.6729 40.3229 34.133 42.618 34.133C45.6217 34.133 46.9772 36.4121 46.9772 39.7385V52.4588H55.6956V38.7837C55.6956 31.1762 51.4134 27.6342 45.9452 27.6342Z" fill="#0A7CFF"/>
</svg>
