<svg width="701" height="567" viewBox="0 0 701 567" fill="none" xmlns="http://www.w3.org/2000/svg">
<path d="M367.333 66.6667H140.667C103.33 66.6667 84.6613 66.6667 70.4007 73.933C57.8563 80.3243 47.6577 90.523 41.2663 103.067C34 117.328 34 135.997 34 173.333V426.667C34 464.003 34 482.673 41.2663 496.933C47.6577 509.477 57.8563 519.677 70.4007 526.067C84.6613 533.333 103.33 533.333 140.667 533.333H527.333C564.67 533.333 583.34 533.333 597.6 526.067C610.143 519.677 620.343 509.477 626.733 496.933C634 482.673 634 464.003 634 426.667V333.333M34 166.667L215.679 287.787C258.432 316.287 279.81 330.54 302.913 336.08C323.347 340.977 344.653 340.977 365.087 336.08C388.19 330.54 409.567 316.287 452.32 287.787M667.333 116.667C667.333 162.69 630.023 200 584 200C537.977 200 500.667 162.69 500.667 116.667C500.667 70.643 537.977 33.3333 584 33.3333C630.023 33.3333 667.333 70.643 667.333 116.667Z" fill="#0A7CFF" fill-opacity="0.24"/>
<path d="M367.333 66.6667H140.667C103.33 66.6667 84.6613 66.6667 70.4007 73.933C57.8563 80.3243 47.6577 90.523 41.2663 103.067C34 117.328 34 135.997 34 173.333V426.667C34 464.003 34 482.673 41.2663 496.933C47.6577 509.477 57.8563 519.677 70.4007 526.067C84.6613 533.333 103.33 533.333 140.667 533.333H527.333C564.67 533.333 583.34 533.333 597.6 526.067C610.143 519.677 620.343 509.477 626.733 496.933C634 482.673 634 464.003 634 426.667V333.333M34 166.667L215.679 287.787C258.432 316.287 279.81 330.54 302.913 336.08C323.347 340.977 344.653 340.977 365.087 336.08C388.19 330.54 409.567 316.287 452.32 287.787M667.333 116.667C667.333 162.69 630.023 200 584 200C537.977 200 500.667 162.69 500.667 116.667C500.667 70.643 537.977 33.3333 584 33.3333C630.023 33.3333 667.333 70.643 667.333 116.667Z" stroke="#0A7CFF" stroke-width="66.6667" stroke-linecap="round" stroke-linejoin="round"/>
</svg>
