<svg width="668" height="567" viewBox="0 0 668 567" fill="none" xmlns="http://www.w3.org/2000/svg">
<path d="M34 300V426.667C34 464.003 34 482.673 41.2663 496.933C47.6577 509.477 57.8563 519.677 70.4007 526.067C84.6613 533.333 103.33 533.333 140.667 533.333H527.333C564.67 533.333 583.34 533.333 597.6 526.067C610.143 519.677 620.343 509.477 626.733 496.933C634 482.673 634 464.003 634 426.667V300M34 300H156.484C172.79 300 180.943 300 188.615 301.843C195.418 303.477 201.921 306.17 207.886 309.823C214.613 313.947 220.379 319.713 231.909 331.243L236.091 335.423C247.622 346.953 253.387 352.72 260.114 356.843C266.079 360.497 272.583 363.19 279.383 364.823C287.057 366.667 295.21 366.667 311.517 366.667H356.483C372.79 366.667 380.943 366.667 388.617 364.823C395.417 363.19 401.92 360.497 407.887 356.843C414.613 352.72 420.38 346.953 431.91 335.423L436.09 331.243C447.62 319.713 453.387 313.947 460.113 309.823C466.08 306.17 472.583 303.477 479.383 301.843C487.057 300 495.21 300 511.517 300H634M34 300L111.546 127.675C126.917 93.5167 134.603 76.4374 146.675 63.9184C157.347 52.852 170.426 44.3954 184.897 39.205C201.267 33.3334 219.996 33.3334 257.454 33.3334H410.547C448.003 33.3334 466.733 33.3334 483.103 39.205C497.573 44.3954 510.653 52.852 521.323 63.9184C533.397 76.4374 541.083 93.5167 556.453 127.675L634 300" fill="#0A7CFF" fill-opacity="0.24"/>
<path d="M34 300V426.667C34 464.003 34 482.673 41.2663 496.933C47.6577 509.477 57.8563 519.677 70.4007 526.067C84.6613 533.333 103.33 533.333 140.667 533.333H527.333C564.67 533.333 583.34 533.333 597.6 526.067C610.143 519.677 620.343 509.477 626.733 496.933C634 482.673 634 464.003 634 426.667V300M34 300H156.484C172.79 300 180.943 300 188.615 301.843C195.418 303.477 201.921 306.17 207.886 309.823C214.613 313.947 220.379 319.713 231.909 331.243L236.091 335.423C247.622 346.953 253.387 352.72 260.114 356.843C266.079 360.497 272.583 363.19 279.383 364.823C287.057 366.667 295.21 366.667 311.517 366.667H356.483C372.79 366.667 380.943 366.667 388.617 364.823C395.417 363.19 401.92 360.497 407.887 356.843C414.613 352.72 420.38 346.953 431.91 335.423L436.09 331.243C447.62 319.713 453.387 313.947 460.113 309.823C466.08 306.17 472.583 303.477 479.383 301.843C487.057 300 495.21 300 511.517 300H634M34 300L111.546 127.675C126.917 93.5167 134.603 76.4374 146.675 63.9184C157.347 52.852 170.426 44.3954 184.897 39.205C201.267 33.3334 219.996 33.3334 257.454 33.3334H410.547C448.003 33.3334 466.733 33.3334 483.103 39.205C497.573 44.3954 510.653 52.852 521.323 63.9184C533.397 76.4374 541.083 93.5167 556.453 127.675L634 300" stroke="#0A7CFF" stroke-width="66.6667" stroke-linecap="round" stroke-linejoin="round"/>
</svg>
