<svg width="37" height="34" viewBox="0 0 37 34" fill="none" xmlns="http://www.w3.org/2000/svg">
<path d="M32.4998 7.22223H22H32.4998Z" fill="#0A7CFF" fill-opacity="0.24"/>
<path d="M32.4998 7.22223H22" stroke="#0A7CFF" stroke-width="2" stroke-miterlimit="10" stroke-linecap="round" stroke-linejoin="round"/>
<path d="M7.99987 7.22223H1H7.99987Z" fill="#0A7CFF" fill-opacity="0.24"/>
<path d="M7.99987 7.22223H1" stroke="#0A7CFF" stroke-width="2" stroke-miterlimit="10" stroke-linecap="round" stroke-linejoin="round"/>
<path d="M14.9999 13.4444C18.3826 13.4444 21.1248 10.6587 21.1248 7.22222C21.1248 3.78578 18.3826 1 14.9999 1C11.6172 1 8.875 3.78578 8.875 7.22222C8.875 10.6587 11.6172 13.4444 14.9999 13.4444Z" fill="#0A7CFF" fill-opacity="0.24" stroke="#0A7CFF" stroke-width="2" stroke-miterlimit="10" stroke-linecap="round" stroke-linejoin="round"/>
<path d="M35.9999 26.7778H29H35.9999Z" fill="#0A7CFF" fill-opacity="0.24"/>
<path d="M35.9999 26.7778H29" stroke="#0A7CFF" stroke-width="2" stroke-miterlimit="10" stroke-linecap="round" stroke-linejoin="round"/>
<path d="M14.9998 26.7778H4.5H14.9998Z" fill="#0A7CFF" fill-opacity="0.24"/>
<path d="M14.9998 26.7778H4.5" stroke="#0A7CFF" stroke-width="2" stroke-miterlimit="10" stroke-linecap="round" stroke-linejoin="round"/>
<path d="M21.9999 33C25.3826 33 28.1248 30.2142 28.1248 26.7778C28.1248 23.3413 25.3826 20.5555 21.9999 20.5555C18.6172 20.5555 15.875 23.3413 15.875 26.7778C15.875 30.2142 18.6172 33 21.9999 33Z" fill="#0A7CFF" fill-opacity="0.24" stroke="#0A7CFF" stroke-width="2" stroke-miterlimit="10" stroke-linecap="round" stroke-linejoin="round"/>
</svg>
