<svg width="166" height="166" viewBox="0 0 166 166" fill="none" xmlns="http://www.w3.org/2000/svg">
<path d="M157.5 83.25C157.5 124.257 124.257 157.5 83.25 157.5M157.5 83.25C157.5 42.2429 124.257 9 83.25 9M157.5 83.25C157.5 96.9194 124.257 108 83.25 108C42.2429 108 9 96.9194 9 83.25M157.5 83.25C157.5 69.5806 124.257 58.5 83.25 58.5C42.2429 58.5 9 69.5806 9 83.25M83.25 157.5C42.2429 157.5 9 124.257 9 83.25M83.25 157.5C69.5806 157.5 58.5 124.257 58.5 83.25C58.5 42.2429 69.5806 9 83.25 9M83.25 157.5C96.9194 157.5 108 124.257 108 83.25C108 42.2429 96.9194 9 83.25 9M83.25 9C42.2429 9 9 42.2429 9 83.25" stroke="#0A7CFF" stroke-width="16.5" stroke-linecap="round" stroke-linejoin="round"/>
<circle cx="83" cy="81" r="72" fill="#0A7CFF" fill-opacity="0.24"/>
</svg>
