<svg width="718" height="718" viewBox="0 0 718 718" fill="none" xmlns="http://www.w3.org/2000/svg">
<path fill-rule="evenodd" clip-rule="evenodd" d="M359.333 26C302.143 26 256.119 72.0237 164.071 164.071C72.0237 256.119 26 302.143 26 359.333C26 416.523 72.0237 462.547 164.071 554.597C256.119 646.643 302.143 692.667 359.333 692.667C416.523 692.667 462.547 646.643 554.597 554.597C646.643 462.547 692.667 416.523 692.667 359.333C692.667 302.143 646.643 256.119 554.597 164.071C462.547 72.0237 416.523 26 359.333 26Z" fill="#0A7CFF" fill-opacity="0.24"/>
<path fill-rule="evenodd" clip-rule="evenodd" d="M289.605 80.06C261.091 101.815 227.939 134.892 181.416 181.416C134.892 227.939 101.815 261.091 80.0601 289.605C58.7451 317.54 50.6667 338.07 50.6667 359C50.6667 379.93 58.7451 400.46 80.0601 428.397C101.815 456.91 134.892 490.06 181.416 536.583C227.939 583.107 261.091 616.183 289.605 637.94C317.54 659.257 338.07 667.333 359 667.333C379.93 667.333 400.46 659.257 428.397 637.94C456.91 616.183 490.06 583.107 536.583 536.583C583.107 490.06 616.183 456.91 637.94 428.397C659.257 400.46 667.333 379.93 667.333 359C667.333 338.07 659.257 317.54 637.94 289.605C616.183 261.091 583.107 227.939 536.583 181.416C490.06 134.892 456.91 101.815 428.397 80.06C400.46 58.745 379.93 50.6667 359 50.6667C338.07 50.6667 317.54 58.745 289.605 80.06ZM259.276 40.309C291.66 15.6004 322.74 0.666687 359 0.666687C395.26 0.666687 426.34 15.6004 458.723 40.309C490.22 64.34 525.713 99.834 570.607 144.727L573.273 147.393C618.167 192.286 653.66 227.779 677.69 259.276C702.4 291.66 717.333 322.74 717.333 359C717.333 395.26 702.4 426.34 677.69 458.723C653.66 490.22 618.167 525.713 573.273 570.607L570.607 573.273C525.713 618.167 490.22 653.66 458.723 677.69C426.34 702.4 395.26 717.333 359 717.333C322.74 717.333 291.66 702.4 259.276 677.69C227.779 653.66 192.286 618.167 147.393 573.273L144.727 570.607C99.8341 525.713 64.3401 490.22 40.3091 458.723C15.6004 426.34 0.666748 395.26 0.666748 359C0.666748 322.74 15.6004 291.66 40.3091 259.276C64.3397 227.779 99.8334 192.286 144.726 147.394L147.394 144.726C192.286 99.8334 227.779 64.3397 259.276 40.309Z" fill="#0A7CFF"/>
<path fill-rule="evenodd" clip-rule="evenodd" d="M385.207 241.901C394.65 231.829 410.47 231.318 420.543 240.762L509.433 324.093C514.473 328.82 517.333 335.423 517.333 342.333C517.333 349.243 514.473 355.847 509.433 360.573L420.543 443.907C410.47 453.35 394.65 452.837 385.207 442.767C375.763 432.693 376.273 416.87 386.347 407.427L429.113 367.333H314.557C303.43 367.333 286.417 370.657 272.987 379.72C260.894 387.883 250.667 401.183 250.667 425.667C250.667 439.473 239.474 450.667 225.667 450.667C211.86 450.667 200.667 439.473 200.667 425.667C200.667 383.483 220.069 355.117 245.013 338.28C268.62 322.343 296.053 317.333 314.557 317.333H429.113L386.347 277.238C376.273 267.795 375.763 251.974 385.207 241.901Z" fill="#0A7CFF"/>
</svg>
