<svg width="668" height="668" viewBox="0 0 668 668" fill="none" xmlns="http://www.w3.org/2000/svg">
<path fill-rule="evenodd" clip-rule="evenodd" d="M334 0.666687C276.81 0.666687 230.785 46.6903 138.738 138.738C46.6904 230.785 0.666748 276.81 0.666748 334C0.666748 391.19 46.6904 437.213 138.738 529.263C230.785 621.31 276.81 667.333 334 667.333C391.19 667.333 437.213 621.31 529.263 529.263C621.31 437.213 667.333 391.19 667.333 334C667.333 276.81 621.31 230.785 529.263 138.738C437.213 46.6903 391.19 0.666687 334 0.666687Z" fill="#0A7CFF" fill-opacity="0.24"/>
<path fill-rule="evenodd" clip-rule="evenodd" d="M360.207 216.902C369.65 206.829 385.47 206.318 395.543 215.762L484.433 299.093C489.473 303.82 492.333 310.423 492.333 317.333C492.333 324.243 489.473 330.847 484.433 335.573L395.543 418.907C385.47 428.35 369.65 427.837 360.207 417.767C350.763 407.693 351.273 391.87 361.347 382.427L404.113 342.333H289.557C278.43 342.333 261.417 345.657 247.987 354.72C235.894 362.883 225.667 376.183 225.667 400.667C225.667 414.473 214.474 425.667 200.667 425.667C186.86 425.667 175.667 414.473 175.667 400.667C175.667 358.483 195.069 330.117 220.013 313.28C243.62 297.343 271.053 292.333 289.557 292.333H404.113L361.347 252.239C351.273 242.795 350.763 226.974 360.207 216.902Z" fill="#0A7CFF"/>
</svg>
