<svg width="34" height="34" viewBox="0 0 34 34" fill="none" xmlns="http://www.w3.org/2000/svg">
<path d="M23.7476 23.7753L33 33L23.7476 23.7753ZM27.6667 14.3333C27.6667 21.6971 21.6971 27.6667 14.3333 27.6667C6.96953 27.6667 1 21.6971 1 14.3333C1 6.96953 6.96953 1 14.3333 1C21.6971 1 27.6667 6.96953 27.6667 14.3333Z" fill="#0A7CFF" fill-opacity="0.24"/>
<path d="M23.7476 23.7753L33 33M27.6667 14.3333C27.6667 21.6971 21.6971 27.6667 14.3333 27.6667C6.96953 27.6667 1 21.6971 1 14.3333C1 6.96953 6.96953 1 14.3333 1C21.6971 1 27.6667 6.96953 27.6667 14.3333Z" stroke="#0A7CFF" stroke-width="2" stroke-linecap="round" stroke-linejoin="round"/>
</svg>
