<svg width="84" height="84" viewBox="0 0 84 84" fill="none" xmlns="http://www.w3.org/2000/svg">
<path d="M60.9247 82V66C61.5098 60.9892 59.9992 55.9605 56.7191 52C69.336 52 81.953 44 81.953 30C82.2894 25 80.8174 20.08 77.7473 16C78.9249 11.4 78.9249 6.6 77.7473 2C77.7473 2 73.5417 2 65.1304 8C54.0275 6 42.5881 6 31.4852 8C23.074 2 18.8683 2 18.8683 2C17.6066 6.6 17.6066 11.4 18.8683 16C15.8061 20.0635 14.3198 25.0111 14.6627 30C14.6627 44 27.2796 52 39.8965 52C38.2563 53.96 37.0367 56.2 36.3217 58.6C35.6068 61 35.3965 63.52 35.6909 66V82" fill="#0A7CFF" fill-opacity="0.24"/>
<path d="M60.9247 82V66C61.5098 60.9892 59.9992 55.9605 56.7191 52C69.336 52 81.953 44 81.953 30C82.2894 25 80.8174 20.08 77.7473 16C78.9249 11.4 78.9249 6.6 77.7473 2C77.7473 2 73.5417 2 65.1304 8C54.0275 6 42.5881 6 31.4852 8C23.074 2 18.8683 2 18.8683 2C17.6066 6.6 17.6066 11.4 18.8683 16C15.8061 20.0635 14.3198 25.0111 14.6627 30C14.6627 44 27.2796 52 39.8965 52C38.2563 53.96 37.0367 56.2 36.3217 58.6C35.6068 61 35.3965 63.52 35.6909 66V82" stroke="#0A7CFF" stroke-width="3" stroke-linecap="round" stroke-linejoin="round"/>
<path d="M31.4395 70.0001C12.4721 78.0001 10.4113 62.0001 2 62.0001" stroke="#0A7CFF" stroke-width="3" stroke-linecap="round" stroke-linejoin="round"/>
</svg>
